<svg width="120" height="120" viewBox="0 0 120 120" fill="none" xmlns="http://www.w3.org/2000/svg">
<path d="M118.205 74.5143C110.192 106.657 77.6358 126.219 45.4888 118.204C13.3553 110.19 -6.20637 77.6324 1.81058 45.4918C9.8205 13.3451 42.3763 -6.21803 74.5133 1.79541C106.658 9.80884 126.219 42.3702 118.204 74.5149L118.205 74.5143H118.205Z" fill="#F7931A"/>
<path fill-rule="evenodd" clip-rule="evenodd" d="M86.4645 51.4517C87.6587 43.467 81.5797 39.1749 73.2671 36.3117L75.9638 25.4957L69.3798 23.8551L66.7547 34.3863C65.0238 33.9546 63.2462 33.5479 61.4795 33.1446L64.1237 22.5439L57.5438 20.9033L54.8457 31.7158C53.4133 31.3896 52.0065 31.0673 50.6416 30.7277L50.6492 30.6937L41.5697 28.4264L39.8183 35.4585C39.8183 35.4585 44.7031 36.5783 44.6001 36.6472C47.2663 37.3126 47.7484 39.0775 47.6684 40.4765L44.5966 52.7984C44.7802 52.845 45.0183 52.9125 45.2811 53.0181L45.0901 52.9704L45.0899 52.9703C44.9275 52.9297 44.7586 52.8874 44.5852 52.8459L40.2796 70.1072C39.9538 70.9172 39.1267 72.1328 37.2627 71.6712C37.3287 71.7668 32.4773 70.477 32.4773 70.477L29.2085 78.0135L37.7765 80.1495C38.7147 80.3848 39.6419 80.6264 40.5596 80.8657L40.5614 80.8662C41.2022 81.0332 41.8385 81.1991 42.4707 81.3607L39.7461 92.3007L46.3225 93.9413L49.0207 83.1174C50.8173 83.6051 52.5608 84.055 54.2676 84.4791L51.5786 95.2519L58.1629 96.8925L60.8871 85.973C72.1143 88.0978 80.5562 87.2411 84.1095 77.0862C86.9727 68.9103 83.967 64.1945 78.0604 61.1192C82.3625 60.127 85.6028 57.2975 86.4668 51.4526L86.4648 51.4511L86.4645 51.4517ZM71.4216 72.5457C69.5547 80.0469 57.8134 76.9457 52.4413 75.5268C51.9581 75.3992 51.5264 75.2852 51.158 75.1937L54.7735 60.7001C55.2224 60.8122 55.771 60.9353 56.3924 61.0747L56.3925 61.0747C61.9492 62.3218 73.3342 64.8768 71.4218 72.5457H71.4216ZM57.5071 54.348C61.9858 55.5433 71.7562 58.1508 73.4578 51.3332H73.4583C75.1959 44.3605 65.7007 42.2583 61.0633 41.2316C60.5416 41.1161 60.0814 41.0142 59.7055 40.9205L56.4276 54.0653C56.7371 54.1425 57.1003 54.2394 57.5071 54.348Z" fill="white"/>
</svg>
